<svg xmlns="http://www.w3.org/2000/svg" viewBox="0 0 848.91 315"><defs><style>.cls-1{fill:#ff5733;}</style></defs><title>Fichier 6</title><g id="Calque_2" data-name="Calque 2"><g id="Calque_1-2" data-name="Calque 1"><path class="cls-1" d="M326.84,0V314.7H294.92V62.94L171.29,274.69H155.55L31.92,64.29V314.7H0V0H27.42L164.09,233.33,299.41,0Z"/><path class="cls-1" d="M546.6,179.15q16.86,20,16.86,51.48,0,40.46-29.9,62.27t-88.34,21.8H300.46V0H436.23q52.61,0,81.6,21.13t29,59.79q0,26.08-12.81,44.29t-35.29,27.2Q529.74,159.15,546.6,179.15ZM333.73,27.42v114.2H434q38.2,0,58.89-14.62t20.69-42.48q0-27.87-20.69-42.49T434,27.42ZM508.61,272.89q21.58-14.38,21.58-45,0-58.89-85.42-58.89h-111V287.28h111Q487,287.28,508.61,272.89Z"/><path class="cls-1" d="M765,285.93V162.3H602.27V133.52H765V0h33.26V314.7H582.49V285.93Z"/><rect class="cls-1" x="677.33" y="143.41" width="314.7" height="28.47" transform="translate(677.03 992.33) rotate(-90)"/></g></g></svg>